<svg width="92" height="36" viewBox="0 0 92 36" fill="none" xmlns="http://www.w3.org/2000/svg">
<path d="M46.3691 21H47.6611L44.0244 11.1357H42.8076L39.1709 21H40.4629L41.4541 18.1768H45.3779L46.3691 21ZM43.3955 12.6328H43.4365L45.0156 17.1309H41.8164L43.3955 12.6328ZM53.8887 13.8906H52.6514L50.6826 19.7354H50.6553L48.6934 13.8906H47.4424L50.0605 21H51.2773L53.8887 13.8906ZM56.7666 21.123C57.7236 21.123 58.626 20.5898 59.0498 19.7764H59.0771V21H60.2051V16.085C60.2051 14.6699 59.1523 13.7676 57.4844 13.7676C55.8027 13.7676 54.75 14.7109 54.668 15.9414H55.8164C55.9668 15.2441 56.541 14.8135 57.457 14.8135C58.4414 14.8135 59.0156 15.333 59.0156 16.2012V16.7959L56.9785 16.9121C55.3379 17.0078 54.4014 17.7734 54.4014 18.9902C54.4014 20.2686 55.3516 21.123 56.7666 21.123ZM57.0332 20.1113C56.1787 20.1113 55.6113 19.667 55.6113 18.9902C55.6113 18.3203 56.1582 17.8965 57.1152 17.835L59.0156 17.7188V18.2998C59.0156 19.3252 58.1543 20.1113 57.0332 20.1113ZM62.3721 12.626C62.7891 12.626 63.1172 12.291 63.1172 11.8809C63.1172 11.4639 62.7891 11.1357 62.3721 11.1357C61.9619 11.1357 61.627 11.4639 61.627 11.8809C61.627 12.291 61.9619 12.626 62.3721 12.626ZM61.7773 21H62.9668V13.8906H61.7773V21ZM64.6348 21H65.8242V11.1357H64.6348V21ZM69.5088 21.123C70.4658 21.123 71.3682 20.5898 71.792 19.7764H71.8193V21H72.9473V16.085C72.9473 14.6699 71.8945 13.7676 70.2266 13.7676C68.5449 13.7676 67.4922 14.7109 67.4102 15.9414H68.5586C68.709 15.2441 69.2832 14.8135 70.1992 14.8135C71.1836 14.8135 71.7578 15.333 71.7578 16.2012V16.7959L69.7207 16.9121C68.0801 17.0078 67.1436 17.7734 67.1436 18.9902C67.1436 20.2686 68.0938 21.123 69.5088 21.123ZM69.7754 20.1113C68.9209 20.1113 68.3535 19.667 68.3535 18.9902C68.3535 18.3203 68.9004 17.8965 69.8574 17.835L71.7578 17.7188V18.2998C71.7578 19.3252 70.8965 20.1113 69.7754 20.1113ZM77.9922 21.123C79.8105 21.123 81.0137 19.6807 81.0137 17.4453C81.0137 15.2168 79.8037 13.7676 78.0127 13.7676C77.0078 13.7676 76.1807 14.2666 75.7363 15.0801H75.709V11.1357H74.5195V21H75.6543V19.7969H75.6816C76.1396 20.6172 76.9531 21.123 77.9922 21.123ZM77.7598 14.8135C79.0176 14.8135 79.7969 15.832 79.7969 17.4453C79.7969 19.0723 79.0176 20.0771 77.7598 20.0771C76.5566 20.0771 75.7021 19.0312 75.7021 17.4453C75.7021 15.8662 76.5566 14.8135 77.7598 14.8135ZM82.2852 21H83.4746V11.1357H82.2852V21ZM89.7979 18.9629C89.5996 19.6328 88.9365 20.0908 88.0342 20.0908C86.7559 20.0908 85.9561 19.1953 85.9561 17.835V17.7666H91.0557V17.3154C91.0557 15.1621 89.873 13.7676 87.9521 13.7676C85.9902 13.7676 84.7324 15.2646 84.7324 17.4727C84.7324 19.708 85.9697 21.123 88.0068 21.123C89.5586 21.123 90.7617 20.207 90.9668 18.9629H89.7979ZM87.9316 14.7998C89.0527 14.7998 89.7979 15.6475 89.8252 16.8369H85.9629C86.0381 15.6543 86.8174 14.7998 87.9316 14.7998Z" fill="#0B0B0B"/>
<g filter="url(#filter0_i_50_23)">
<path fill-rule="evenodd" clip-rule="evenodd" d="M5 21C2.23859 21 0 18.7614 0 16C0 13.2386 2.23859 11 5 11H23C25.7614 11 28 13.2386 28 16C28 18.7614 25.7614 21 23 21H5Z" fill="#FCDED1"/>
</g>
<g filter="url(#filter1_d_50_23)">
<circle cx="21" cy="16" r="8" fill="white"/>
</g>
<defs>
<filter id="filter0_i_50_23" x="0" y="11" width="28" height="10" filterUnits="userSpaceOnUse" color-interpolation-filters="sRGB">
<feFlood flood-opacity="0" result="BackgroundImageFix"/>
<feBlend mode="normal" in="SourceGraphic" in2="BackgroundImageFix" result="shape"/>
<feColorMatrix in="SourceAlpha" type="matrix" values="0 0 0 0 0 0 0 0 0 0 0 0 0 0 0 0 0 0 127 0" result="hardAlpha"/>
<feOffset/>
<feGaussianBlur stdDeviation="0.5"/>
<feComposite in2="hardAlpha" operator="arithmetic" k2="-1" k3="1"/>
<feColorMatrix type="matrix" values="0 0 0 0 0 0 0 0 0 0 0 0 0 0 0 0 0 0 0.25 0"/>
<feBlend mode="normal" in2="shape" result="effect1_innerShadow_50_23"/>
</filter>
<filter id="filter1_d_50_23" x="4" y="0" width="36" height="36" filterUnits="userSpaceOnUse" color-interpolation-filters="sRGB">
<feFlood flood-opacity="0" result="BackgroundImageFix"/>
<feColorMatrix in="SourceAlpha" type="matrix" values="0 0 0 0 0 0 0 0 0 0 0 0 0 0 0 0 0 0 127 0" result="hardAlpha"/>
<feOffset dx="1" dy="2"/>
<feGaussianBlur stdDeviation="5"/>
<feColorMatrix type="matrix" values="0 0 0 0 0 0 0 0 0 0 0 0 0 0 0 0 0 0 0.25 0"/>
<feBlend mode="normal" in2="BackgroundImageFix" result="effect1_dropShadow_50_23"/>
<feBlend mode="normal" in="SourceGraphic" in2="effect1_dropShadow_50_23" result="shape"/>
</filter>
</defs>
</svg>
